<?xml version="1.0" encoding="UTF-8" standalone="no"?>
<!-- Created with Inkscape (http://www.inkscape.org/) -->

<svg
   version="1.1"
   id="svg9"
   xml:space="preserve"
   width="1122.5197"
   height="793.70081"
   viewBox="0 0 1122.5197 793.70081"
   sodipodi:docname="GLL1-Pins.svg"
   inkscape:version="1.1.1 (c3084ef, 2021-09-22)"
   xmlns:inkscape="http://www.inkscape.org/namespaces/inkscape"
   xmlns:sodipodi="http://sodipodi.sourceforge.net/DTD/sodipodi-0.dtd"
   xmlns="http://www.w3.org/2000/svg"
   xmlns:svg="http://www.w3.org/2000/svg"><defs
     id="defs13"><clipPath
       clipPathUnits="userSpaceOnUse"
       id="clipPath25"><path
         d="M 8.503967,8.851729 H 832.42397 V 586.77173 H 8.503967 Z"
         id="path23" /></clipPath><clipPath
       clipPathUnits="userSpaceOnUse"
       id="clipPath37"><path
         d="m 497.144,176.6117 h 112.32 v 112.32 h -112.32 z"
         id="path35" /></clipPath><clipPath
       clipPathUnits="userSpaceOnUse"
       id="clipPath47"><path
         d="m 232.904,294.4517 h 95.52 v 95.52 h -95.52 z"
         id="path45" /></clipPath><clipPath
       clipPathUnits="userSpaceOnUse"
       id="clipPath57"><path
         d="m 460.424,302.1317 h 80.16 v 80.16 h -80.16 z"
         id="path55" /></clipPath><clipPath
       clipPathUnits="userSpaceOnUse"
       id="clipPath67"><path
         d="m 405.704,192.6917 h 80.16 v 80.16 h -80.16 z"
         id="path65" /></clipPath><clipPath
       clipPathUnits="userSpaceOnUse"
       id="clipPath77"><path
         d="m 350.984,302.1317 h 80.16 v 80.16 h -80.16 z"
         id="path75" /></clipPath><clipPath
       clipPathUnits="userSpaceOnUse"
       id="clipPath87"><path
         d="m 296.024,192.6917 h 80.16 v 80.16 h -80.16 z"
         id="path85" /></clipPath><clipPath
       clipPathUnits="userSpaceOnUse"
       id="clipPath97"><path
         d="m 498.104,177.5717 h 110.4 v 110.4 h -110.4 z"
         id="path95" /></clipPath><clipPath
       clipPathUnits="userSpaceOnUse"
       id="clipPath107"><path
         d="m 234.104,295.6517 h 93.12 v 93.12 h -93.12 z"
         id="path105" /></clipPath><clipPath
       clipPathUnits="userSpaceOnUse"
       id="clipPath117"><path
         d="m 467.864,309.5717 h 65.28 v 65.28 h -65.28 z"
         id="path115" /></clipPath><clipPath
       clipPathUnits="userSpaceOnUse"
       id="clipPath127"><path
         d="m 413.144,200.1317 h 65.28 v 65.28 h -65.28 z"
         id="path125" /></clipPath><clipPath
       clipPathUnits="userSpaceOnUse"
       id="clipPath137"><path
         d="m 358.424,309.5717 h 65.28 v 65.28 h -65.28 z"
         id="path135" /></clipPath><clipPath
       clipPathUnits="userSpaceOnUse"
       id="clipPath147"><path
         d="m 303.464,200.1317 h 65.28 v 65.28 h -65.28 z"
         id="path145" /></clipPath><clipPath
       clipPathUnits="userSpaceOnUse"
       id="clipPath157"><path
         d="m 373.544,319.4117 h 33.12 v 49.68 h -33.12 z"
         id="path155" /></clipPath><clipPath
       clipPathUnits="userSpaceOnUse"
       id="clipPath169"><path
         d="m 484.904,319.4117 h 31.2 v 6.48 h -31.2 z"
         id="path167" /></clipPath><clipPath
       clipPathUnits="userSpaceOnUse"
       id="clipPath181"><path
         d="m 484.904,319.4117 h 18.96 v 49.68 h -18.96 z"
         id="path179" /></clipPath><clipPath
       clipPathUnits="userSpaceOnUse"
       id="clipPath193"><path
         d="m 364.184,438.6917 h 49.68 v 30.96 h -49.68 z"
         id="path191" /></clipPath><clipPath
       clipPathUnits="userSpaceOnUse"
       id="clipPath205"><path
         d="m 364.184,483.8117 h 49.68 v 30.96 h -49.68 z"
         id="path203" /></clipPath><clipPath
       clipPathUnits="userSpaceOnUse"
       id="clipPath217"><path
         d="m 364.184,526.7717 h 49.68 v 31.2 h -49.68 z"
         id="path215" /></clipPath><clipPath
       clipPathUnits="userSpaceOnUse"
       id="clipPath229"><path
         d="m 364.184,569.9717 h 49.68 v 6.48 h -49.68 z"
         id="path227" /></clipPath><clipPath
       clipPathUnits="userSpaceOnUse"
       id="clipPath241"><path
         d="m 473.624,432.4517 h 49.68 v 35.28 h -49.68 z"
         id="path239" /></clipPath><clipPath
       clipPathUnits="userSpaceOnUse"
       id="clipPath253"><path
         d="m 473.624,473.4917 h 49.68 v 33.12 h -49.68 z"
         id="path251" /></clipPath><clipPath
       clipPathUnits="userSpaceOnUse"
       id="clipPath265"><path
         d="m 473.624,516.4517 h 49.68 v 33.36 h -49.68 z"
         id="path263" /></clipPath><clipPath
       clipPathUnits="userSpaceOnUse"
       id="clipPath277"><path
         d="m 341.384,209.9717 h 6.48 v 35.28 h -6.48 z"
         id="path275" /></clipPath><clipPath
       clipPathUnits="userSpaceOnUse"
       id="clipPath289"><path
         d="m 320.744,224.3717 h 33.12 v 37.2 h -33.12 z"
         id="path287" /></clipPath><clipPath
       clipPathUnits="userSpaceOnUse"
       id="clipPath301"><path
         d="m 309.464,70.29173 h 6.48 v 31.2 h -6.48 z"
         id="path299" /></clipPath><clipPath
       clipPathUnits="userSpaceOnUse"
       id="clipPath313"><path
         d="m 309.464,82.53173 h 49.68 v 6.48 h -49.68 z"
         id="path311" /></clipPath><clipPath
       clipPathUnits="userSpaceOnUse"
       id="clipPath325"><path
         d="m 309.464,105.0917 h 49.68 v 35.28 h -49.68 z"
         id="path323" /></clipPath><clipPath
       clipPathUnits="userSpaceOnUse"
       id="clipPath341"><path
         d="m 418.904,17.01173 h 49.68 v 33.12 h -49.68 z"
         id="path339" /></clipPath><clipPath
       clipPathUnits="userSpaceOnUse"
       id="clipPath353"><path
         d="m 418.904,62.13173 h 49.68 v 30.96 h -49.68 z"
         id="path351" /></clipPath><clipPath
       clipPathUnits="userSpaceOnUse"
       id="clipPath365"><path
         d="m 418.904,107.2517 h 49.68 v 30.96 h -49.68 z"
         id="path363" /></clipPath><clipPath
       clipPathUnits="userSpaceOnUse"
       id="clipPath377"><path
         d="m 142.424,164.1317 h 5.76 v 246.96 h -5.76 z"
         id="path375" /></clipPath><clipPath
       clipPathUnits="userSpaceOnUse"
       id="clipPath389"><path
         d="m 142.424,405.3317 h 551.76 v 5.76 h -551.76 z"
         id="path387" /></clipPath><clipPath
       clipPathUnits="userSpaceOnUse"
       id="clipPath401"><path
         d="m 428.264,209.9717 h 33.12 v 49.68 h -33.12 z"
         id="path399" /></clipPath><clipPath
       clipPathUnits="userSpaceOnUse"
       id="clipPath413"><path
         d="m 142.424,164.1317 h 551.76 v 5.76 h -551.76 z"
         id="path411" /></clipPath><clipPath
       clipPathUnits="userSpaceOnUse"
       id="clipPath425"><path
         d="m 688.424,164.1317 h 5.76 v 246.96 h -5.76 z"
         id="path423" /></clipPath><clipPath
       clipPathUnits="userSpaceOnUse"
       id="clipPath437"><path
         d="m 568.904,332.6117 h 17.76 v 17.76 h -17.76 z"
         id="path435" /></clipPath><clipPath
       clipPathUnits="userSpaceOnUse"
       id="clipPath449"><path
         d="m 719.144,215.4917 h 49.44 v 33.12 h -49.44 z"
         id="path447" /></clipPath><clipPath
       clipPathUnits="userSpaceOnUse"
       id="clipPath461"><path
         d="m 719.144,260.6117 h 49.44 v 26.88 h -49.44 z"
         id="path459" /></clipPath><clipPath
       clipPathUnits="userSpaceOnUse"
       id="clipPath473"><path
         d="m 719.144,295.4117 h 49.44 v 27.12 h -49.44 z"
         id="path471" /></clipPath><clipPath
       clipPathUnits="userSpaceOnUse"
       id="clipPath485"><path
         d="m 762.104,328.2917 h 6.48 v 31.2 h -6.48 z"
         id="path483" /></clipPath><clipPath
       clipPathUnits="userSpaceOnUse"
       id="clipPath497"><path
         d="m 719.144,328.2917 h 49.44 v 18.72 h -49.44 z"
         id="path495" /></clipPath></defs><sodipodi:namedview
     id="namedview11"
     pagecolor="#ffffff"
     bordercolor="#666666"
     borderopacity="1.0"
     inkscape:pageshadow="2"
     inkscape:pageopacity="0.0"
     inkscape:pagecheckerboard="0"
     showgrid="false"
     inkscape:zoom="0.28150955"
     inkscape:cx="559.48369"
     inkscape:cy="397.85507"
     inkscape:window-width="791"
     inkscape:window-height="480"
     inkscape:window-x="0"
     inkscape:window-y="25"
     inkscape:window-maximized="0"
     inkscape:current-layer="g15" /><g
     id="g15"
     inkscape:groupmode="layer"
     inkscape:label="GLL1-Pins"
     transform="matrix(1.3333333,0,0,-1.3333333,0,793.7008)"><g
       id="g17" /><g
       id="g19"><g
         id="g21"
         clip-path="url(#clipPath25)"><path
           d="M 8.263967,586.7717 H 832.424 V 8.851729 H 8.263967 Z"
           style="fill:#ffffff;fill-opacity:1;fill-rule:nonzero;stroke:none"
           id="path27" /><path
           d="M 8.263967,586.7717 H 832.424 V 8.851729 H 8.263967 Z"
           style="fill:#ffffff;fill-opacity:1;fill-rule:nonzero;stroke:none"
           id="path29" /></g></g><g
       id="g31"><g
         id="g33"
         clip-path="url(#clipPath37)"><path
           d="m 609.344,232.7717 c 0,-30.9497 -25.0903,-56.04 -56.04,-56.04 -30.9497,0 -56.04,25.0903 -56.04,56.04 0,30.9497 25.0903,56.04 56.04,56.04 30.9497,0 56.04,-25.0903 56.04,-56.04 z"
           style="fill:#000000;fill-opacity:1;fill-rule:nonzero;stroke:none"
           id="path39" /></g></g><g
       id="g41"><g
         id="g43"
         clip-path="url(#clipPath47)"><path
           d="m 328.304,342.2117 c 0,-26.3109 -21.3291,-47.64 -47.64,-47.64 -26.311,0 -47.64,21.3291 -47.64,47.64 0,26.311 21.329,47.64 47.64,47.64 26.3109,0 47.64,-21.329 47.64,-47.64 z"
           style="fill:#000000;fill-opacity:1;fill-rule:nonzero;stroke:none"
           id="path49" /></g></g><g
       id="g51"><g
         id="g53"
         clip-path="url(#clipPath57)"><path
           d="m 540.464,342.2117 c 0,-22.0697 -17.8903,-39.96 -39.96,-39.96 -22.0697,0 -39.96,17.8903 -39.96,39.96 0,22.0697 17.8903,39.96 39.96,39.96 22.0697,0 39.96,-17.8903 39.96,-39.96 z"
           style="fill:#000000;fill-opacity:1;fill-rule:nonzero;stroke:none"
           id="path59" /></g></g><g
       id="g61"><g
         id="g63"
         clip-path="url(#clipPath67)"><path
           d="m 485.744,232.7717 c 0,-22.0697 -17.8903,-39.96 -39.96,-39.96 -22.0697,0 -39.96,17.8903 -39.96,39.96 0,22.0697 17.8903,39.96 39.96,39.96 22.0697,0 39.96,-17.8903 39.96,-39.96 z"
           style="fill:#000000;fill-opacity:1;fill-rule:nonzero;stroke:none"
           id="path69" /></g></g><g
       id="g71"><g
         id="g73"
         clip-path="url(#clipPath77)"><path
           d="m 431.024,342.2117 c 0,-22.0697 -17.8903,-39.96 -39.96,-39.96 -22.0697,0 -39.96,17.8903 -39.96,39.96 0,22.0697 17.8903,39.96 39.96,39.96 22.0697,0 39.96,-17.8903 39.96,-39.96 z"
           style="fill:#000000;fill-opacity:1;fill-rule:nonzero;stroke:none"
           id="path79" /></g></g><g
       id="g81"><g
         id="g83"
         clip-path="url(#clipPath87)"><path
           d="m 376.064,232.7717 c 0,-22.0697 -17.8903,-39.96 -39.96,-39.96 -22.0697,0 -39.96,17.8903 -39.96,39.96 0,22.0697 17.8903,39.96 39.96,39.96 22.0697,0 39.96,-17.8903 39.96,-39.96 z"
           style="fill:#000000;fill-opacity:1;fill-rule:nonzero;stroke:none"
           id="path89" /></g></g><g
       id="g91"><g
         id="g93"
         clip-path="url(#clipPath97)"><path
           d="m 608.384,232.7717 c 0,-30.42 -24.66,-55.08 -55.08,-55.08 -30.42,0 -55.08,24.66 -55.08,55.08 0,30.42 24.66,55.08 55.08,55.08 30.42,0 55.08,-24.66 55.08,-55.08 z"
           style="fill:#000000;fill-opacity:1;fill-rule:nonzero;stroke:none"
           id="path99" /></g></g><g
       id="g101"><g
         id="g103"
         clip-path="url(#clipPath107)"><path
           d="m 327.104,342.2117 c 0,-25.6481 -20.7919,-46.44 -46.44,-46.44 -25.6482,0 -46.44,20.7919 -46.44,46.44 0,25.6482 20.7918,46.44 46.44,46.44 25.6481,0 46.44,-20.7918 46.44,-46.44 z"
           style="fill:#000000;fill-opacity:1;fill-rule:nonzero;stroke:none"
           id="path109" /></g></g><g
       id="g111"><g
         id="g113"
         clip-path="url(#clipPath117)"><path
           d="m 533.024,342.2117 c 0,-17.9606 -14.5594,-32.52 -32.52,-32.52 -17.9607,0 -32.52,14.5594 -32.52,32.52 0,17.9607 14.5593,32.52 32.52,32.52 17.9606,0 32.52,-14.5593 32.52,-32.52 z"
           style="fill:#ffffff;fill-opacity:1;fill-rule:nonzero;stroke:none"
           id="path119" /></g></g><g
       id="g121"><g
         id="g123"
         clip-path="url(#clipPath127)"><path
           d="m 478.304,232.7717 c 0,-17.9606 -14.5594,-32.52 -32.52,-32.52 -17.9607,0 -32.52,14.5594 -32.52,32.52 0,17.9607 14.5593,32.52 32.52,32.52 17.9606,0 32.52,-14.5593 32.52,-32.52 z"
           style="fill:#ffffff;fill-opacity:1;fill-rule:nonzero;stroke:none"
           id="path129" /></g></g><g
       id="g131"><g
         id="g133"
         clip-path="url(#clipPath137)"><path
           d="m 423.584,342.2117 c 0,-17.9606 -14.5594,-32.52 -32.52,-32.52 -17.9607,0 -32.52,14.5594 -32.52,32.52 0,17.9607 14.5593,32.52 32.52,32.52 17.9606,0 32.52,-14.5593 32.52,-32.52 z"
           style="fill:#ffffff;fill-opacity:1;fill-rule:nonzero;stroke:none"
           id="path139" /></g></g><g
       id="g141"><g
         id="g143"
         clip-path="url(#clipPath147)"><path
           d="m 368.624,232.7717 c 0,-17.9606 -14.5594,-32.52 -32.52,-32.52 -17.9607,0 -32.52,14.5594 -32.52,32.52 0,17.9607 14.5593,32.52 32.52,32.52 17.9606,0 32.52,-14.5593 32.52,-32.52 z"
           style="fill:#ffffff;fill-opacity:1;fill-rule:nonzero;stroke:none"
           id="path149" /></g></g><g
       id="g151"><g
         id="g153"
         clip-path="url(#clipPath157)"><g
           id="g159"
           transform="matrix(0.24,0,0,-0.24,8.503967,586.7717)"><path
             d="m 1534.5,920.5 h 111 l -60,69 h 26 l 17,8 8,9 9,17 v 43 l -9,17 -8,8 -17,9 h -52 l -17,-9 -8,-8"
             style="fill:none;stroke:#000000;stroke-width:27;stroke-linecap:round;stroke-linejoin:round;stroke-miterlimit:10;stroke-dasharray:none;stroke-opacity:1"
             id="path161" /></g></g></g><g
       id="g163"><g
         id="g165"
         clip-path="url(#clipPath169)"><g
           id="g171"
           transform="matrix(0.24,0,0,-0.24,8.503967,586.7717)"><path
             d="m 2101.5,1100.5 h -103"
             style="fill:none;stroke:#000000;stroke-width:27;stroke-linecap:round;stroke-linejoin:round;stroke-miterlimit:10;stroke-dasharray:none;stroke-opacity:1"
             id="path173" /></g></g></g><g
       id="g175"><g
         id="g177"
         clip-path="url(#clipPath181)"><g
           id="g183"
           transform="matrix(0.24,0,0,-0.24,8.503967,586.7717)"><path
             d="m 2050.5,1100.5 v -180 l -18,26 -17,17 -17,9"
             style="fill:none;stroke:#000000;stroke-width:27;stroke-linecap:round;stroke-linejoin:round;stroke-miterlimit:10;stroke-dasharray:none;stroke-opacity:1"
             id="path185" /></g></g></g><g
       id="g187"><g
         id="g189"
         clip-path="url(#clipPath193)"><g
           id="g195"
           transform="matrix(0.24,0,0,-0.24,8.503967,586.7717)"><path
             d="m 1495.5,603.5 h 146 l 17,-8 8,-9 9,-17 v -34 l -9,-17 -8,-9 -17,-8 h -146"
             style="fill:none;stroke:#000000;stroke-width:27;stroke-linecap:round;stroke-linejoin:round;stroke-miterlimit:10;stroke-dasharray:none;stroke-opacity:1"
             id="path197" /></g></g></g><g
       id="g199"><g
         id="g201"
         clip-path="url(#clipPath205)"><g
           id="g207"
           transform="matrix(0.24,0,0,-0.24,8.503967,586.7717)"><path
             d="m 1675.5,415.5 h -180 v -68 l 9,-17 8,-9 17,-8 h 26 l 17,8 9,9 8,17 v 68"
             style="fill:none;stroke:#000000;stroke-width:27;stroke-linecap:round;stroke-linejoin:round;stroke-miterlimit:10;stroke-dasharray:none;stroke-opacity:1"
             id="path209" /></g></g></g><g
       id="g211"><g
         id="g213"
         clip-path="url(#clipPath217)"><g
           id="g219"
           transform="matrix(0.24,0,0,-0.24,8.503967,586.7717)"><path
             d="m 1675.5,236.5 h -180 v -43 l 9,-26 17,-17 17,-8 34,-9 h 26 l 34,9 17,8 17,17 9,26 v 43"
             style="fill:none;stroke:#000000;stroke-width:27;stroke-linecap:round;stroke-linejoin:round;stroke-miterlimit:10;stroke-dasharray:none;stroke-opacity:1"
             id="path221" /></g></g></g><g
       id="g223"><g
         id="g225"
         clip-path="url(#clipPath229)"><g
           id="g231"
           transform="matrix(0.24,0,0,-0.24,8.503967,586.7717)"><path
             d="m 1675.5,56.5 h -180"
             style="fill:none;stroke:#000000;stroke-width:27;stroke-linecap:round;stroke-linejoin:round;stroke-miterlimit:10;stroke-dasharray:none;stroke-opacity:1"
             id="path233" /></g></g></g><g
       id="g235"><g
         id="g237"
         clip-path="url(#clipPath241)"><g
           id="g243"
           transform="matrix(0.24,0,0,-0.24,8.503967,586.7717)"><path
             d="m 1951.5,629.5 180,-60 -180,-60"
             style="fill:none;stroke:#000000;stroke-width:27;stroke-linecap:round;stroke-linejoin:round;stroke-miterlimit:10;stroke-dasharray:none;stroke-opacity:1"
             id="path245" /></g></g></g><g
       id="g247"><g
         id="g249"
         clip-path="url(#clipPath253)"><g
           id="g255"
           transform="matrix(0.24,0,0,-0.24,8.503967,586.7717)"><path
             d="m 2114.5,347.5 8,8 9,26 v 17 l -9,26 -17,17 -17,9 -34,8 h -26 l -34,-8 -17,-9 -17,-17 -9,-26 v -17 l 9,-26 8,-8"
             style="fill:none;stroke:#000000;stroke-width:27;stroke-linecap:round;stroke-linejoin:round;stroke-miterlimit:10;stroke-dasharray:none;stroke-opacity:1"
             id="path257" /></g></g></g><g
       id="g259"><g
         id="g261"
         clip-path="url(#clipPath265)"><g
           id="g267"
           transform="matrix(0.24,0,0,-0.24,8.503967,586.7717)"><path
             d="m 2114.5,167.5 8,9 9,26 v 17 l -9,25 -17,17 -17,9 -34,9 h -26 l -34,-9 -17,-9 -17,-17 -9,-25 v -17 l 9,-26 8,-9"
             style="fill:none;stroke:#000000;stroke-width:27;stroke-linecap:round;stroke-linejoin:round;stroke-miterlimit:10;stroke-dasharray:none;stroke-opacity:1"
             id="path269" /></g></g></g><g
       id="g271"><g
         id="g273"
         clip-path="url(#clipPath277)"><g
           id="g279"
           transform="matrix(0.24,0,0,-0.24,8.503967,586.7717)"><path
             d="m 1400.5,1436.5 v 120"
             style="fill:none;stroke:#000000;stroke-width:27;stroke-linecap:round;stroke-linejoin:round;stroke-miterlimit:10;stroke-dasharray:none;stroke-opacity:1"
             id="path281" /></g></g></g><g
       id="g283"><g
         id="g285"
         clip-path="url(#clipPath289)"><g
           id="g291"
           transform="matrix(0.24,0,0,-0.24,8.503967,586.7717)"><path
             d="m 1357.5,1368.5 -43,128 h 111"
             style="fill:none;stroke:#000000;stroke-width:27;stroke-linecap:round;stroke-linejoin:round;stroke-miterlimit:10;stroke-dasharray:none;stroke-opacity:1"
             id="path293" /></g></g></g><g
       id="g295"><g
         id="g297"
         clip-path="url(#clipPath301)"><g
           id="g303"
           transform="matrix(0.24,0,0,-0.24,8.503967,586.7717)"><path
             d="m 1267.5,2138.5 v -103"
             style="fill:none;stroke:#000000;stroke-width:27;stroke-linecap:round;stroke-linejoin:round;stroke-miterlimit:10;stroke-dasharray:none;stroke-opacity:1"
             id="path305" /></g></g></g><g
       id="g307"><g
         id="g309"
         clip-path="url(#clipPath313)"><g
           id="g315"
           transform="matrix(0.24,0,0,-0.24,8.503967,586.7717)"><path
             d="m 1447.5,2087.5 h -180"
             style="fill:none;stroke:#000000;stroke-width:27;stroke-linecap:round;stroke-linejoin:round;stroke-miterlimit:10;stroke-dasharray:none;stroke-opacity:1"
             id="path317" /></g></g></g><g
       id="g319"><g
         id="g321"
         clip-path="url(#clipPath325)"><g
           id="g327"
           transform="matrix(0.24,0,0,-0.24,8.503967,586.7717)"><path
             d="m 1267.5,1993.5 180,-120"
             style="fill:none;stroke:#000000;stroke-width:27;stroke-linecap:round;stroke-linejoin:round;stroke-miterlimit:10;stroke-dasharray:none;stroke-opacity:1"
             id="path329" /></g><g
           id="g331"
           transform="matrix(0.24,0,0,-0.24,8.503967,586.7717)"><path
             d="m 1267.5,1873.5 180,120"
             style="fill:none;stroke:#000000;stroke-width:27;stroke-linecap:round;stroke-linejoin:round;stroke-miterlimit:10;stroke-dasharray:none;stroke-opacity:1"
             id="path333" /></g></g></g><g
       id="g335"><g
         id="g337"
         clip-path="url(#clipPath341)"><g
           id="g343"
           transform="matrix(0.24,0,0,-0.24,8.503967,586.7717)"><path
             d="m 1732.5,2258.5 -9,17 v 25 l 9,26 17,17 17,9 34,8 h 26 l 34,-8 17,-9 17,-17 9,-26 v -17 l -9,-25 -8,-9 h -60 v 34"
             style="fill:none;stroke:#000000;stroke-width:27;stroke-linecap:round;stroke-linejoin:round;stroke-miterlimit:10;stroke-dasharray:none;stroke-opacity:1"
             id="path345" /></g></g></g><g
       id="g347"><g
         id="g349"
         clip-path="url(#clipPath353)"><g
           id="g355"
           transform="matrix(0.24,0,0,-0.24,8.503967,586.7717)"><path
             d="m 1903.5,2172.5 h -180 l 180,-102 h -180"
             style="fill:none;stroke:#000000;stroke-width:27;stroke-linecap:round;stroke-linejoin:round;stroke-miterlimit:10;stroke-dasharray:none;stroke-opacity:1"
             id="path357" /></g></g></g><g
       id="g359"><g
         id="g361"
         clip-path="url(#clipPath365)"><g
           id="g367"
           transform="matrix(0.24,0,0,-0.24,8.503967,586.7717)"><path
             d="m 1903.5,1984.5 h -180 v -43 l 9,-25 17,-17 17,-9 34,-8 h 26 l 34,8 17,9 17,17 9,25 v 43"
             style="fill:none;stroke:#000000;stroke-width:27;stroke-linecap:round;stroke-linejoin:round;stroke-miterlimit:10;stroke-dasharray:none;stroke-opacity:1"
             id="path369" /></g></g></g><g
       id="g371"><g
         id="g373"
         clip-path="url(#clipPath377)"><g
           id="g379"
           transform="matrix(0.24,0,0,-0.24,8.503967,586.7717)"><path
             d="M 570,1749 V 744"
             style="fill:none;stroke:#000000;stroke-width:23;stroke-linecap:round;stroke-linejoin:round;stroke-miterlimit:10;stroke-dasharray:none;stroke-opacity:1"
             id="path381" /></g></g></g><g
       id="g383"><g
         id="g385"
         clip-path="url(#clipPath389)"><g
           id="g391"
           transform="matrix(0.24,0,0,-0.24,8.503967,586.7717)"><path
             d="M 570,744 H 2845"
             style="fill:none;stroke:#000000;stroke-width:23;stroke-linecap:round;stroke-linejoin:round;stroke-miterlimit:10;stroke-dasharray:none;stroke-opacity:1"
             id="path393" /></g></g></g><g
       id="g395"><g
         id="g397"
         clip-path="url(#clipPath401)"><g
           id="g403"
           transform="matrix(0.24,0,0,-0.24,8.503967,586.7717)"><path
             d="m 1770.5,1394.5 9,-9 17,-9 h 43 l 17,9 8,9 9,17 v 17 l -9,25 -102,103 h 111"
             style="fill:none;stroke:#000000;stroke-width:27;stroke-linecap:round;stroke-linejoin:round;stroke-miterlimit:10;stroke-dasharray:none;stroke-opacity:1"
             id="path405" /></g></g></g><g
       id="g407"><g
         id="g409"
         clip-path="url(#clipPath413)"><g
           id="g415"
           transform="matrix(0.24,0,0,-0.24,8.503967,586.7717)"><path
             d="M 2845,1749 H 570"
             style="fill:none;stroke:#000000;stroke-width:23;stroke-linecap:round;stroke-linejoin:round;stroke-miterlimit:10;stroke-dasharray:none;stroke-opacity:1"
             id="path417" /></g></g></g><g
       id="g419"><g
         id="g421"
         clip-path="url(#clipPath425)"><g
           id="g427"
           transform="matrix(0.24,0,0,-0.24,8.503967,586.7717)"><path
             d="M 2845,744 V 1749"
             style="fill:none;stroke:#000000;stroke-width:23;stroke-linecap:round;stroke-linejoin:round;stroke-miterlimit:10;stroke-dasharray:none;stroke-opacity:1"
             id="path429" /></g></g></g><g
       id="g431"><g
         id="g433"
         clip-path="url(#clipPath437)"><g
           id="g439"
           transform="matrix(0.24,0,0,-0.24,8.503967,586.7717)"><path
             d="m 2390.5,1022 c 0,10.219 -8.281,18.5 -18.5,18.5 -10.219,0 -18.5,-8.281 -18.5,-18.5 0,-10.219 8.281,-18.5 18.5,-18.5 10.219,0 18.5,8.281 18.5,18.5 z"
             style="fill:none;stroke:#000000;stroke-width:36;stroke-linecap:round;stroke-linejoin:round;stroke-miterlimit:10;stroke-dasharray:none;stroke-opacity:1"
             id="path441" /></g></g></g><g
       id="g443"><g
         id="g445"
         clip-path="url(#clipPath449)"><g
           id="g451"
           transform="matrix(0.24,0,0,-0.24,8.503967,586.7717)"><path
             d="m 2982.5,1431.5 -8,17 v 25 l 8,26 17,17 18,9 34,8 h 25 l 35,-8 17,-9 17,-17 8,-26 v -17 l -8,-25 -9,-9 h -60 v 34"
             style="fill:none;stroke:#000000;stroke-width:27;stroke-linecap:round;stroke-linejoin:round;stroke-miterlimit:10;stroke-dasharray:none;stroke-opacity:1"
             id="path453" /></g></g></g><g
       id="g455"><g
         id="g457"
         clip-path="url(#clipPath461)"><g
           id="g463"
           transform="matrix(0.24,0,0,-0.24,8.503967,586.7717)"><path
             d="m 3153.5,1260.5 v 85 h -179"
             style="fill:none;stroke:#000000;stroke-width:27;stroke-linecap:round;stroke-linejoin:round;stroke-miterlimit:10;stroke-dasharray:none;stroke-opacity:1"
             id="path465" /></g></g></g><g
       id="g467"><g
         id="g469"
         clip-path="url(#clipPath473)"><g
           id="g475"
           transform="matrix(0.24,0,0,-0.24,8.503967,586.7717)"><path
             d="m 3153.5,1114.5 v 86 h -179"
             style="fill:none;stroke:#000000;stroke-width:27;stroke-linecap:round;stroke-linejoin:round;stroke-miterlimit:10;stroke-dasharray:none;stroke-opacity:1"
             id="path477" /></g></g></g><g
       id="g479"><g
         id="g481"
         clip-path="url(#clipPath485)"><g
           id="g487"
           transform="matrix(0.24,0,0,-0.24,8.503967,586.7717)"><path
             d="m 3153.5,960.5 v 103"
             style="fill:none;stroke:#000000;stroke-width:27;stroke-linecap:round;stroke-linejoin:round;stroke-miterlimit:10;stroke-dasharray:none;stroke-opacity:1"
             id="path489" /></g></g></g><g
       id="g491"><g
         id="g493"
         clip-path="url(#clipPath497)"><g
           id="g499"
           transform="matrix(0.24,0,0,-0.24,8.503967,586.7717)"><path
             d="m 3153.5,1012.5 h -179 l 25,17 18,17 8,17"
             style="fill:none;stroke:#000000;stroke-width:27;stroke-linecap:round;stroke-linejoin:round;stroke-miterlimit:10;stroke-dasharray:none;stroke-opacity:1"
             id="path501" /></g></g></g></g></svg>
